# xmcd
#
# Track frame offsets: 
#        150
#        17899
#        40313
#        58290
#        72595
#        90269
#        110483
#        129622
#        144595
#        155676
#        189873
#
# Disc length: 2875 seconds
#
# Revision: 0
# Processed by: cddbd v1.5.2PL0 Copyright (c) Steve Scherf et al.
# Submitted via: ExactAudioCopy v0.99pb3
#
DISCID=9c0b390b
DTITLE=Salty Dog - Lose These Blues
DYEAR=2011
DGENRE=Blues
TTITLE0=Lose These Blues
TTITLE1=In Dark Of Night
TTITLE2=The Keeper
TTITLE3=What I Got Is Mine
TTITLE4=Mchine Gun
TTITLE5=King Snake Boogie
TTITLE6=Young And Free
TTITLE7=Train Is Coming
TTITLE8=Long Way From Home
TTITLE9=Thrill Is Gone
TTITLE10=Too Rollin' Stoned
EXTD=
EXTT0=
EXTT1=
EXTT2=
EXTT3=
EXTT4=
EXTT5=
EXTT6=
EXTT7=
EXTT8=
EXTT9=
EXTT10=
PLAYORDER=
